<svg xmlns="http://www.w3.org/2000/svg" viewBox="0 0 4474 3355.5"><defs><style>.cls-1{fill:none;}.cls-2{fill:#666;}</style></defs><g id="Layer_2" data-name="Layer 2"><g id="_Layer_" data-name="&lt;Layer&gt;"><rect class="cls-1" width="4474" height="3355.5"/><path class="cls-2" d="M1855.14,1287.47A155.56,155.56,0,1,0,1699.6,1443,155.57,155.57,0,0,0,1855.14,1287.47Z"/><path class="cls-2" d="M1169.67,2337.79h3.17a99.87,99.87,0,0,0,69.14,28H3232a99.8,99.8,0,0,0,69.15-28h3.22v-3.18a99.89,99.89,0,0,0,28-69.14V930.34A100.41,100.41,0,0,0,3232,830.07H1242a100.36,100.36,0,0,0-100.27,100.27V2265.47a99.63,99.63,0,0,0,28,69.11Zm28-1407.45A44.36,44.36,0,0,1,1242,886H3232a44.51,44.51,0,0,1,44.4,44.4V2166.86l-610.78-863.19c-50.21-70.94-155.48-70.94-205.67,0L2030,1911.4l321.84,321.9a28,28,0,1,1-39.54,39.54l-516.08-516.1a126,126,0,0,0-178.78.62L1197.64,2183Z"/><polygon class="cls-2" points="1582.72 2535.07 1550.94 2535.07 1550.94 2848.94 1575.08 2848.94 1575.08 2573.52 1697.19 2848.94 1728.92 2848.94 1728.92 2535.51 1703.86 2535.51 1703.86 2806.45 1582.72 2535.07"/><path class="cls-2" d="M1803.85,2627.15c-21.46,18.35-31.73,56.36-31.29,116.28,0,6.71-.87,49.64,16.11,80.06,6.72,10.71,12.07,15.62,16.55,18.73,7.59,5.41,21.46,13,45.17,13,15.61,0,30.85-3.6,42.49-13,31.73-26.38,32.16-87.16,32.16-91.64.44-6.72.44-13.87.44-20.59,0-46-8.46-76-20.54-92.52-17.47-24.19-43.85-25.06-54.12-25.5C1833.84,2612,1816.36,2616.45,1803.85,2627.15Zm92.14,52.32c4,21.47,4,43.37,4,49.21,0,24.58-.93,80.5-24.19,98.36-7.16,4.92-16.06,7.16-25.45,7.16-21.47,0-32.23-10.27-36.7-16.12-4.92-6.71-8.91-15.18-12.51-34.4-1.8-11.2-3.55-27.75-3.55-52.76,0-23.27,1.75-48.33,10.7-69.8,3.61-8.46,6.72-13.38,9.83-16,9.83-10.33,25.94-11.2,30.86-11.64,13.87,0,26.38,4.92,34,13.88C1892.38,2658,1895.55,2675.92,1896,2679.47Z"/><rect class="cls-2" x="2068.35" y="2534.58" width="28.18" height="39.81"/><rect class="cls-2" x="2070.15" y="2619.12" width="24.14" height="229.82"/><path class="cls-2" d="M2382.22,2848.94V2679c.44-25.94-1.8-35.34-10.27-46-14.31-19.72-34.46-21-42.92-21-22,0-38,9.39-43.86,14.31-4.92,3.55-12.94,11.63-12.94,11.63-9.83-11.19-16.55-18.79-30.42-23.26A79.73,79.73,0,0,0,2224,2612c-32.22,0-47.9,18.79-56.36,27.25v-22.33h-23.27v232.05h25.07V2667c8.46-13,16.55-24.58,30.36-30.42a43.63,43.63,0,0,1,16.55-3.55,34.54,34.54,0,0,1,31.79,19.66c1.74,3.11,2.67,8.46,3.55,17.42v178.86h25.5V2661.61c8.47-11.19,12.94-16.11,18.35-20.15a42.45,42.45,0,0,1,26.38-9,36.08,36.08,0,0,1,33.53,24.2,65.09,65.09,0,0,1,2.68,17.42v174.82Z"/><path class="cls-2" d="M2484.4,2720.16c-18.79,5.84-35.77,12.51-47.84,28.62-12.56,17.47-12.07,36.7-12.07,43.85,0,15.19,2.24,23.71,4.42,29.93,4.48,11.64,17.48,33.1,50.09,33.1,30,0,44.29-17.42,51.44-25.51.88,2.68,3.11,16.55,14.75,20.59a22.75,22.75,0,0,0,8.52,1.37c6.72,0,17.86-1.8,18.79-1.8v-17.48c-11.2-1.31-16.55-2.18-17.92-13.82-.87-4.48-.87-9-1.31-13.43v-137.3c0-2.68-.49-18.73-6.28-30.81-2.24-4.47-6.28-10.32-10.27-13.43-14.8-11.63-38-12.07-41.61-12.07-37.09,0-52.32,18.35-58.55,33.1-4,9.83-5.41,20.09-6.72,31.29h25c.93-12.07,1.8-23.26,10.32-31.73,3.55-4,12.94-11.63,27.69-11.63,11.19,0,18.35,4,21.9,6.66,13.43,9,14.31,21,14.31,36.7,0,13.38-.44,19.22-4.43,24.14C2516.57,2710.77,2496.47,2716.17,2484.4,2720.16Zm45.17,4.92v54.12c-.93,15.18-2.24,27.25-12.07,38.88-8.52,9.83-21,16.12-33.54,16.12-10.32,0-16.11-3.55-19.71-6.29-8-6.22-13.87-16-13.87-37.08,0-21.46,10.76-33.53,17.91-38.88a77.59,77.59,0,0,1,17.42-8.52Z"/><path class="cls-2" d="M2677.41,2905.74c-31.29,0-37.52-15.67-42-30h-25.5c1.36,7.15,3.11,14.8,6.71,21.46,6.72,12.56,23.71,30.86,58.6,30.86,31.74.49,46.92-13.38,55.88-24.14,13.43-16.55,13.87-32.17,14.31-39.76V2616.89h-24.58V2637c-4.48-5.35-7.65-9.39-13.44-13.38-14.31-11.19-32.17-12.07-37.57-12.07-34.85,0-50.52,29.06-55.44,39.76-5.35,12.07-8,27.31-9,30.86-3.11,27.31-4,38.94-4,52.76,0,23.7,4.43,49.64,5.35,56.36,2.24,9.83,4.48,18.35,8.47,27.74,4.91,9.83,20.59,36.65,54.12,36.65,13,0,28.18-4.48,38.89-12.51,3.6-2.67,6.28-5.35,12.07-12.07,1.36,21.9,2.73,47.84-14.75,64.39C2695.32,2905.3,2682.38,2905.74,2677.41,2905.74Zm19.71-78.7c-9.39,6.28-17.47,7.16-22.39,7.16-8.9,0-24.57-4-34.4-22.34-11.2-20.59-13-52.32-13-74.22,0-20.15,2.73-63.08,11.63-81.43,9.4-19.66,26.87-23.71,35.34-23.71,25.06,0,34.89,19.72,37.57,25.95,8,17.47,10.27,39.37,10.27,79.62C2722.14,2786.35,2715.91,2814.53,2697.12,2827Z"/><path class="cls-2" d="M2930.38,2731.36c.88-30.86-.43-38-3.11-55.93-4-18.73-8.52-36.21-23.27-48.71-15.67-13.88-36.7-14.75-43.36-14.75s-21.46.44-36.26,10.27c-13.82,9-20.54,21.9-23.22,27.31-14.3,30.85-13.43,85.85-13.43,88.09,0,29.05,3.61,50.51,6.28,61.66,12.94,47.4,46,55.49,66.14,55.49a90.32,90.32,0,0,0,15.67-1.37,53.65,53.65,0,0,0,21.47-8c25.06-15.67,29.05-46.09,30-53.69.87-5.35,1.31-10.7,2.24-16.11l-24.2-.43c-1.31,14.31-3.11,29.54-10.7,41.61-8.52,12.95-19.22,17-34.46,17-17.42,0-25.45-8.08-29.93-13.87-17.91-22.83-17-60.35-16.55-88.53Zm-105.08-76.9c4-8.52,11.64-22,34.85-22,4.48,0,15.67,0,25.5,7.16,20.59,15.67,20.59,55.49,20.59,58.16,0,4.48,0,9,.44,13.38l-93,.5C2815,2692.47,2816.79,2671.88,2825.3,2654.46Z"/></g></g></svg>