<?xml version="1.0" encoding="utf-8"?>
<!-- Generator: Adobe Illustrator 24.3.0, SVG Export Plug-In . SVG Version: 6.00 Build 0)  -->
<svg version="1.1" id="Layer_1" xmlns="http://www.w3.org/2000/svg" xmlns:xlink="http://www.w3.org/1999/xlink" x="0px" y="0px"
	 viewBox="0 0 220 50" style="enable-background:new 0 0 220 50;" xml:space="preserve">
<style type="text/css">
	.st0{fill:url(#SVGID_1_);}
	.st1{fill:url(#SVGID_2_);}
	.st2{fill:url(#SVGID_3_);}
	.st3{font-family:'MyriadPro-Regular';}
	.st4{font-size:40px;}
	.st5{fill:#FD9B28;}
</style>
<g id="Layer_2_1_">
	<g id="OBJECTS">
		
			<linearGradient id="SVGID_1_" gradientUnits="userSpaceOnUse" x1="192.0775" y1="2.21" x2="192.0775" y2="52.21" gradientTransform="matrix(-1 0 0 -1 220.0005 52.21)">
			<stop  offset="0" style="stop-color:#FFFFFF"/>
			<stop  offset="0.12" style="stop-color:#DBDADA"/>
			<stop  offset="0.36" style="stop-color:#9A9899"/>
			<stop  offset="0.57" style="stop-color:#676465"/>
			<stop  offset="0.76" style="stop-color:#423E3F"/>
			<stop  offset="0.91" style="stop-color:#2B2728"/>
			<stop  offset="1" style="stop-color:#231F20"/>
		</linearGradient>
		<path class="st0" d="M6.6,6.1c0,0,13-1.1,21.4-6.1c8.4,5,21.4,6.1,21.4,6.1c0,3.2-0.3,6.4-0.8,9.6l-4.6-0.3l4.2,2.4
			c-0.1,0.5-0.2,1-0.3,1.4l-2.9-1l2.5,2.5c-0.9,3.3-2,6.5-3.5,9.6l-3.9-1.7l3,3.4c-0.8,1.6-1.8,3.2-2.8,4.7l-2-1.6l1.3,2.7
			c-0.6,0.8-1.2,1.6-1.7,2.4l-3.3-2.6l2,4.2C32,47.3,27.9,50,27.9,50s-4.1-2.7-8.7-8.2l2-4.2l-3.3,2.6c-0.6-0.7-1.2-1.5-1.7-2.4
			l1.3-2.7l-2,1.6c-1-1.5-1.9-3.1-2.8-4.7l3.1-3.4l-3.9,1.7c-1.5-3.1-2.6-6.3-3.5-9.6l2.5-2.5l-2.9,1c-0.1-0.5-0.2-0.9-0.3-1.4
			l4.2-2.4l-4.6,0.3C6.8,12.5,6.6,9.3,6.6,6.1z M41.5,14.9l0.9-0.9c1-1,1-2.7-0.1-3.7c-0.6-0.6-1.5-0.8-2.3-0.7L39,9.8
			c0.5,0.5,0.9,1.1,1.1,1.8c-0.4-0.4-0.9-0.7-1.5-0.8C39.7,12,40.7,13.4,41.5,14.9z M23.9,37.8c2.6,0.9,5.5,0.9,8.1,0
			c0.2-0.1,0.4-0.3,0.3-0.6l-0.2-1c-0.1-0.3-0.3-0.6-0.7-0.7l-3.6-0.5l-3.6,0.5c-0.3,0-0.6,0.3-0.7,0.7l-0.2,1
			C23.5,37.4,23.6,37.7,23.9,37.8z M17.9,22.4c0,1.6,0.3,3.3,0.9,4.8c0.4-0.7,1-1.3,1.7-1.7c0,0-0.6,0.7-1,2.7c0,0.2,0,0.4,0.1,0.6
			c0.1,0.2,0.3,0.5,0.4,0.7l0.8,1.3c0.5-0.7,1.2-1.2,2.1-1.5c0,0-0.6,0.5-1.3,2c-0.1,0.3-0.1,0.6,0.1,0.9l1.6,2.5
			c0.2,0.2,0.5,0.4,0.7,0.3l3-1c0.2-0.1,0.4-0.3,0.4-0.5v-2.1c0-0.4-0.2-0.7-0.6-0.9L26,30c-0.7-0.4-1.3-0.9-1.7-1.6
			c0-0.1,0-0.2,0-0.2c0,0,0.1,0,0.1,0l3.6,0.3l3.6-0.3c0.1,0,0.1,0.1,0.1,0.1c0,0,0,0.1,0,0.1c-0.4,0.7-1,1.2-1.7,1.6l-1,0.5
			c-0.3,0.2-0.6,0.5-0.6,0.9v2.1c0,0.2,0.1,0.4,0.4,0.5l3,1c0.3,0.1,0.6,0,0.7-0.3l1.6-2.5c0.2-0.3,0.2-0.6,0.1-0.9
			c-0.6-1.5-1.3-2-1.3-2c0.8,0.3,1.6,0.8,2.1,1.5l0.8-1.3c0.2-0.2,0.3-0.5,0.4-0.7c0.1-0.2,0.2-0.4,0.1-0.6c-0.4-1.9-1-2.7-1-2.7
			c0.7,0.4,1.3,1,1.7,1.7c0.6-1.5,0.9-3.2,0.9-4.8v-2.1c0-3.6-1.5-7.1-4.2-9.6l-5.8,1.7l-5.8-1.7c-2.7,2.4-4.2,5.9-4.2,9.6V22.4z
			 M13.5,14l0.9,0.9c0.8-1.5,1.7-2.9,2.8-4.2c-0.6,0.1-1.1,0.3-1.5,0.8c0.2-0.7,0.6-1.3,1.1-1.8l-0.9-0.2c-1.4-0.3-2.8,0.7-3.1,2.1
			C12.6,12.5,12.9,13.4,13.5,14L13.5,14z"/>
		
			<linearGradient id="SVGID_2_" gradientUnits="userSpaceOnUse" x1="186.485" y1="31.4416" x2="186.485" y2="33.9249" gradientTransform="matrix(-1 0 0 -1 220.0005 52.21)">
			<stop  offset="0" style="stop-color:#FFFFFF"/>
			<stop  offset="0.12" style="stop-color:#DBDADA"/>
			<stop  offset="0.36" style="stop-color:#9A9899"/>
			<stop  offset="0.57" style="stop-color:#676465"/>
			<stop  offset="0.76" style="stop-color:#423E3F"/>
			<stop  offset="0.91" style="stop-color:#2B2728"/>
			<stop  offset="1" style="stop-color:#231F20"/>
		</linearGradient>
		<path class="st1" d="M35,18.4l0.8-0.1c0,0-1,3-4.6,2.4C32.2,19.5,33.5,18.7,35,18.4z"/>
		
			<linearGradient id="SVGID_3_" gradientUnits="userSpaceOnUse" x1="197.6718" y1="31.4438" x2="197.6718" y2="33.9271" gradientTransform="matrix(-1 0 0 -1 220.0005 52.21)">
			<stop  offset="0" style="stop-color:#FFFFFF"/>
			<stop  offset="0.12" style="stop-color:#DBDADA"/>
			<stop  offset="0.36" style="stop-color:#9A9899"/>
			<stop  offset="0.57" style="stop-color:#676465"/>
			<stop  offset="0.76" style="stop-color:#423E3F"/>
			<stop  offset="0.91" style="stop-color:#2B2728"/>
			<stop  offset="1" style="stop-color:#231F20"/>
		</linearGradient>
		<path class="st2" d="M24.6,20.7C21,21.3,20,18.3,20,18.3l0.8,0.1C22.3,18.7,23.7,19.5,24.6,20.7z"/>
	</g>
</g>
<text transform="matrix(1 0 0 1 55.9072 37.7768)"><tspan x="0" y="0" class="st3 st4">Silver </tspan><tspan x="99.4" y="0" class="st5 st3 st4">lion</tspan></text>
</svg>
